<?xml version="1.0" encoding="UTF-8"?>
<!-- Generator: visioncortex VTracer 0.6.3 -->
<svg version="1.1" xmlns="http://www.w3.org/2000/svg" width="1280" height="293">
<path d="M0 0 C0.92 -0 1.85 -0.01 2.8 -0.01 C3.79 -0.01 4.79 -0.01 5.81 -0 C7.37 -0 7.37 -0 8.96 -0.01 C11.17 -0.01 13.37 -0.01 15.58 -0 C18.9 0 22.21 -0 25.53 -0.01 C63.19 -0.02 63.19 -0.02 78.33 5.13 C80.16 5.57 82 6.01 83.83 6.44 C90.87 8.16 97.56 10.59 104.33 13.13 C104.33 13.79 104.33 14.45 104.33 15.13 C104.89 15.23 105.44 15.34 106.02 15.44 C108.81 16.27 110.93 17.58 113.4 19.13 C116.09 20.82 118.3 22.12 121.33 23.13 C121.33 23.79 121.33 24.45 121.33 25.13 C121.99 25.13 122.65 25.13 123.33 25.13 C123.33 25.79 123.33 26.45 123.33 27.13 C124.32 27.13 125.31 27.13 126.33 27.13 C128.52 29 128.52 29 130.33 31.13 C130.33 31.79 130.33 32.45 130.33 33.13 C130.99 33.13 131.65 33.13 132.33 33.13 C132.33 33.79 132.33 34.45 132.33 35.13 C133.32 35.46 134.31 35.79 135.33 36.13 C135.66 37.12 135.99 38.11 136.33 39.13 C137.32 39.79 138.31 40.45 139.33 41.13 C140.02 42.79 140.69 44.45 141.33 46.13 C141.99 46.46 142.65 46.79 143.33 47.13 C143.69 49.46 144.02 51.79 144.33 54.13 C144.66 54.78 144.99 55.43 145.33 56.1 C147.05 59.58 146.89 63.25 147.08 67.07 C147.17 68.26 147.17 68.26 147.25 69.49 C147.49 73.91 147.39 77.09 145.33 81.13 C145 82.12 144.67 83.11 144.33 84.13 C143.67 84.13 143.01 84.13 142.33 84.13 C142.04 85.22 141.76 86.32 141.46 87.44 C140.33 91.13 140.33 91.13 138.33 94.13 C137.67 94.13 137.01 94.13 136.33 94.13 C135.67 96.11 135.01 98.09 134.33 100.13 C133.34 100.13 132.35 100.13 131.33 100.13 C131.33 100.79 131.33 101.45 131.33 102.13 C129.36 104.48 128.33 105.13 125.33 106.13 C124.62 106.9 124.62 106.9 123.9 107.69 C122.33 109.13 122.33 109.13 118.33 109.13 C118.33 109.79 118.33 110.45 118.33 111.13 C117.69 111.23 117.05 111.34 116.4 111.44 C115.38 111.78 115.38 111.78 114.33 112.13 C114 113.12 113.67 114.11 113.33 115.13 C111.48 116.01 111.48 116.01 109.15 116.69 C108.34 116.94 107.52 117.18 106.69 117.43 C105.52 117.78 105.52 117.78 104.33 118.13 C103.22 118.52 102.11 118.91 100.96 119.32 C98.33 120.13 98.33 120.13 95.33 120.13 C95.66 120.79 95.99 121.45 96.33 122.13 C93.36 122.13 90.39 122.13 87.33 122.13 C88.59 127.15 90.12 127.43 94.33 130.13 C95.34 131.46 96.34 132.79 97.33 134.13 C99 135.14 100.66 136.14 102.33 137.13 C104.1 138.75 105.71 140.37 107.33 142.13 C108.1 142.94 108.86 143.74 109.65 144.57 C110.47 145.46 111.3 146.34 112.15 147.25 C112.94 148.1 113.73 148.95 114.54 149.82 C116.33 152.13 116.33 152.13 116.33 155.13 C116.99 155.13 117.65 155.13 118.33 155.13 C120.33 158.13 120.33 158.13 120.33 161.13 C120.99 161.13 121.65 161.13 122.33 161.13 C123.01 162.69 123.68 164.25 124.33 165.81 C125.08 167.53 125.85 169.25 126.65 170.95 C129.56 177.42 130.8 182.05 130.33 189.13 C130.66 189.46 130.99 189.79 131.33 190.13 C131.46 191.88 131.51 193.63 131.52 195.38 C131.54 196.33 131.55 197.29 131.56 198.27 C131.32 201.26 130.48 203.38 129.33 206.13 C129.63 208.86 129.63 208.86 130.33 211.13 C129.67 211.13 129.01 211.13 128.33 211.13 C128 212.78 127.67 214.43 127.33 216.13 C130.26 215.48 132.85 214.55 135.58 213.32 C136.36 212.97 137.14 212.62 137.95 212.25 C140.26 211.17 142.51 210 144.77 208.82 C145.95 208.26 147.12 207.7 148.33 207.13 C148.99 207.46 149.65 207.79 150.33 208.13 C150.33 207.14 150.33 206.15 150.33 205.13 C153.32 204.36 156.31 203.72 159.33 203.13 C159.46 202.61 159.58 202.1 159.71 201.57 C162.28 191.54 165.71 181.82 169.33 172.13 C169.66 171.22 169.99 170.3 170.33 169.36 C171.33 167.13 171.33 167.13 173.33 166.13 C173.76 165.25 174.18 164.38 174.62 163.48 C176.58 159.66 178.95 156.77 181.77 153.57 C182.73 152.46 183.69 151.36 184.64 150.25 C185.1 149.72 185.56 149.19 186.04 148.65 C187.21 147.28 188.33 145.86 189.45 144.44 C191.21 142.29 192.97 140.55 195.08 138.75 C197.26 136.9 199.42 135.05 201.52 133.13 C202.57 132.17 202.57 132.17 203.65 131.19 C204.6 130.31 204.6 130.31 205.57 129.41 C207.33 128.13 207.33 128.13 210.33 128.13 C210.33 127.47 210.33 126.81 210.33 126.13 C215.9 122.14 224.38 116.13 231.33 116.13 C231.66 115.14 231.99 114.15 232.33 113.13 C236.03 110.91 237.96 110.13 242.33 110.13 C242.33 109.47 242.33 108.81 242.33 108.13 C243.26 107.88 244.19 107.63 245.15 107.38 C249.42 106.17 253.54 104.61 257.69 103.03 C263.34 101.1 269.28 100.55 275.18 99.73 C278.31 99.24 278.31 99.24 280.99 98.06 C283.33 97.13 283.33 97.13 287.33 97.13 C288.7 96.64 288.7 96.64 290.1 96.15 C293.81 94.98 297.2 94.82 301.04 94.83 C301.77 94.82 302.49 94.82 303.24 94.82 C304.76 94.81 306.29 94.81 307.82 94.81 C310.13 94.82 312.44 94.79 314.75 94.77 C321.65 94.74 328.04 94.76 334.53 97.41 C337.22 98.49 339.98 98.81 342.83 99.25 C348.88 100.49 353.89 102.61 359.33 105.5 C360.04 105.88 360.75 106.25 361.47 106.64 C364.83 108.5 367.74 110.4 370.58 112.98 C373.04 115.34 373.04 115.34 375.5 115.17 C377.76 113.89 379.02 112.47 380.65 110.44 C381.26 109.73 381.87 109.01 382.5 108.27 C383.64 106.94 384.77 105.61 385.88 104.27 C388.62 101.42 390.45 100.25 394.42 99.69 C400.41 99.58 405.65 100.16 411.33 102.13 C418.42 104.19 425.24 104.43 432.58 104.38 C433.65 104.39 434.71 104.39 435.8 104.4 C436.83 104.4 437.85 104.4 438.91 104.4 C440.29 104.39 440.29 104.39 441.71 104.39 C444.57 104.11 446.72 103.3 449.33 102.13 C457.13 99.71 465.24 99.51 473.33 99.13 C474.18 99.06 475.03 99 475.9 98.93 C479.6 98.73 481.2 99.04 484.33 101.13 C484.99 101.79 485.65 102.45 486.33 103.13 C485.72 107.27 484.23 110.42 482.33 114.13 C482.33 114.79 482.33 115.45 482.33 116.13 C481.67 116.46 481.01 116.79 480.33 117.13 C479.86 119.04 479.4 120.96 478.97 122.88 C478.12 125.89 476.72 128.45 475.27 131.21 C474.18 133.3 474.18 133.3 473.4 136.44 C471.91 141.59 469.62 146.3 467.33 151.13 C466.67 151.13 466.01 151.13 465.33 151.13 C465.66 152.12 465.99 153.11 466.33 154.13 C465.67 154.13 465.01 154.13 464.33 154.13 C464.43 155.46 464.43 155.46 464.52 156.82 C464.31 160.57 463.35 162.03 461.33 165.13 C460.15 168.33 459.23 171.53 458.33 174.82 C457.33 178.13 457.33 178.13 455.33 181.13 C455.02 182.08 454.71 183.03 454.4 184 C453.35 187.07 452.01 189.38 450.33 192.13 C448.12 196.83 446.6 201.5 445.16 206.48 C443.81 210.8 442.08 214.96 440.33 219.13 C439.67 219.13 439.01 219.13 438.33 219.13 C438.4 220.49 438.4 220.49 438.46 221.88 C438.33 225.1 437.8 226.38 436.33 229.13 C436.33 230.45 436.33 231.77 436.33 233.13 C441.53 232.17 446.7 231.1 451.83 229.82 C452.65 229.61 453.46 229.41 454.3 229.2 C457.9 227.93 461.18 226.26 464.57 224.53 C467.39 223.1 470.23 221.75 473.1 220.41 C474.07 219.95 475.04 219.5 476.05 219.02 C478.04 218.09 480.03 217.16 482.03 216.23 C487.58 213.62 492.43 210.82 497.33 207.13 C498.14 206.82 498.94 206.51 499.77 206.19 C510.46 201.76 515 192.37 519.33 182.13 C519.67 180.8 520 179.46 520.33 178.13 C521.57 175.52 522.83 172.95 524.15 170.38 C524.66 169.36 524.66 169.36 525.19 168.32 C527.96 162.85 527.96 162.85 529.32 160.21 C532.63 153.75 535.37 147.07 538.15 140.38 C538.54 139.47 538.92 138.57 539.31 137.64 C539.65 136.82 539.99 136 540.34 135.16 C541.33 133.13 541.33 133.13 543.33 131.13 C541.41 129.21 537.86 129.88 535.24 129.81 C534.53 129.79 533.82 129.77 533.09 129.75 C530.82 129.68 528.54 129.63 526.27 129.57 C524.73 129.52 523.2 129.48 521.66 129.44 C517.88 129.33 514.11 129.23 510.33 129.13 C509.49 126.07 509.32 124.27 510.15 121.19 C511.12 117.29 511.7 113.44 512.21 109.44 C513.04 103.75 514.23 100.23 518.33 96.13 C520.03 96.04 521.73 96.02 523.43 96.03 C524.46 96.03 525.49 96.04 526.55 96.04 C528.17 96.05 528.17 96.05 529.83 96.07 C530.92 96.07 532 96.08 533.12 96.08 C535.86 96.09 538.6 96.11 541.33 96.13 C541.66 96.13 541.99 96.13 542.33 96.13 C543.49 96.18 543.49 96.18 544.66 96.23 C545.63 96.26 546.59 96.29 547.58 96.32 C548.54 96.35 549.49 96.39 550.47 96.42 C553.97 96.06 555.6 95.35 558.33 93.13 C559.7 90.82 560.82 88.69 561.9 86.25 C565.95 77.32 570.46 72.39 579.33 68.13 C581.74 67.5 583.84 67.29 586.33 67.13 C586.66 66.8 586.99 66.47 587.33 66.13 C590.69 65.8 594.06 65.62 597.43 65.41 C600.22 65.45 600.22 65.45 601.33 64.13 C603.19 64.16 603.19 64.16 605.08 64.19 C608.71 64.23 611 63.64 614.33 62.13 C615.06 61.96 615.79 61.79 616.54 61.61 C627.05 59.1 633.85 51.42 640.33 43.13 C641.34 41.47 642.34 39.8 643.33 38.13 C643.99 38.13 644.65 38.13 645.33 38.13 C645.33 37.14 645.33 36.15 645.33 35.13 C645.99 35.13 646.65 35.13 647.33 35.13 C647.44 34.55 647.55 33.97 647.67 33.38 C649.21 28.17 653.17 24.09 657.27 20.69 C660.68 18.95 663.56 18.57 667.33 18.13 C667.66 17.47 667.99 16.81 668.33 16.13 C672.05 16.61 675.57 17.41 679.15 18.5 C679.92 18.74 680.69 18.97 681.48 19.22 C682.09 19.52 682.7 19.82 683.33 20.13 C683.66 21.12 683.99 22.11 684.33 23.13 C684.99 23.13 685.65 23.13 686.33 23.13 C688.34 31.51 685.42 38.74 681.33 46.13 C680.67 46.13 680.01 46.13 679.33 46.13 C679.23 47.11 679.13 48.09 679.02 49.1 C678.4 53.51 676.9 57.44 675.27 61.57 C674.99 62.3 674.71 63.03 674.42 63.78 C673.73 65.57 673.03 67.35 672.33 69.13 C671.67 69.13 671.01 69.13 670.33 69.13 C670.66 70.12 670.99 71.11 671.33 72.13 C670.67 72.13 670.01 72.13 669.33 72.13 C669.33 73.45 669.33 74.77 669.33 76.13 C668.67 76.13 668.01 76.13 667.33 76.13 C667.54 76.71 667.75 77.28 667.96 77.88 C668.44 80.77 667.72 81.57 666.33 84.13 C665.84 85.12 665.34 86.12 664.83 87.15 C663.33 90.14 661.83 93.13 660.33 96.13 C664.03 98.6 666.9 98.43 671.18 98.44 C672.75 98.46 674.32 98.49 675.89 98.51 C678.37 98.54 680.84 98.57 683.32 98.59 C685.71 98.61 688.1 98.65 690.49 98.69 C691.23 98.69 691.97 98.69 692.73 98.69 C697.85 98.79 697.85 98.79 700.3 100.52 C701.67 102.65 701.67 104.06 701.58 106.57 C701.57 107.33 701.55 108.09 701.54 108.88 C701.04 114.41 701.04 114.41 698.74 116.76 C698.11 117.25 697.48 117.75 696.83 118.25 C694.15 120.33 694.15 120.33 692.33 123.13 C691.01 123.13 689.69 123.13 688.33 123.13 C688 123.79 687.67 124.45 687.33 125.13 C684.71 126.88 683.34 127.64 680.33 128.13 C679.67 127.8 679.01 127.47 678.33 127.13 C676.85 127.62 676.85 127.62 675.33 128.13 C673.52 128.2 671.71 128.21 669.9 128.19 C668.84 128.18 667.78 128.18 666.69 128.17 C664.45 128.14 662.22 128.12 659.98 128.09 C658.92 128.08 657.86 128.07 656.77 128.07 C655.32 128.05 655.32 128.05 653.83 128.03 C651.2 128.02 651.2 128.02 648.33 129.13 C647.45 131.16 647.45 131.16 646.9 133.63 C645.71 138.01 644.16 141.97 642.25 146.08 C641.08 148.7 640.18 151.38 639.33 154.13 C638.67 154.13 638.01 154.13 637.33 154.13 C637.4 155.18 637.4 155.18 637.46 156.25 C637.31 159.58 636.5 162.01 635.33 165.13 C634.94 166.2 634.94 166.2 634.53 167.29 C633.81 169.24 633.07 171.18 632.33 173.13 C631.67 173.13 631.01 173.13 630.33 173.13 C630.19 174.22 630.04 175.32 629.9 176.44 C629.16 181.3 627.42 185.71 625.77 190.32 C625.54 190.97 625.3 191.63 625.06 192.3 C624.49 193.91 623.91 195.52 623.33 197.13 C622.67 197.13 622.01 197.13 621.33 197.13 C621.24 197.93 621.15 198.72 621.06 199.54 C620.14 204.1 618.5 208.2 616.77 212.5 C616.28 213.75 616.28 213.75 615.77 215.02 C614.97 217.06 614.15 219.1 613.33 221.13 C615.58 223.64 615.58 223.64 618.79 224.56 C625.39 224.57 628.85 223.75 634.33 220.13 C636.26 219.42 638.18 218.72 640.11 218.03 C646.94 215.26 653.26 211.18 659.58 207.44 C662.78 205.56 665.9 203.78 669.33 202.38 C672.08 201.23 674 199.94 676.33 198.13 C676.99 198.13 677.65 198.13 678.33 198.13 C678.38 197.47 678.43 196.8 678.48 196.12 C678.88 191.44 679.26 187.4 681.33 183.13 C682.05 181.43 682.05 181.43 682.77 179.69 C684.2 176.44 685.72 173.29 687.33 170.13 C687.65 169.41 687.96 168.69 688.28 167.95 C691.23 161.48 695.21 156.35 699.84 151.04 C702.62 147.8 705.16 144.43 707.67 140.97 C709.65 138.78 711.78 137.62 714.33 136.13 C716.7 134.07 718.97 131.93 721.25 129.77 C723.33 128.13 723.33 128.13 726.33 128.13 C726.33 127.47 726.33 126.81 726.33 126.13 C730.09 123.97 733.85 121.84 737.65 119.75 C740.96 117.93 744.18 116 747.4 114 C751.61 111.47 755.67 109.64 760.33 108.13 C762.42 107.44 764.5 106.76 766.58 106.07 C767.58 105.75 768.57 105.42 769.6 105.09 C772.27 104.22 772.27 104.22 774.38 103.07 C779.77 100.47 786.39 100.46 792.25 99.73 C795.43 99.41 795.43 99.41 797.33 97.13 C799.67 97.13 802 97.13 804.33 97.13 C805.08 96.81 805.83 96.48 806.6 96.15 C811.94 94.16 817.87 94.76 823.52 94.76 C825.8 94.75 828.07 94.72 830.35 94.68 C838.68 94.62 845.74 95.34 853.68 98.19 C856.04 99.03 858.18 99.53 860.65 99.88 C870.24 101.87 880.53 107.69 887.76 114.2 C889.32 115.32 889.32 115.32 891.33 115.01 C893.84 113.9 894.94 112.58 896.65 110.44 C897.26 109.73 897.87 109.01 898.5 108.27 C899.64 106.94 900.77 105.61 901.88 104.27 C904.63 101.41 906.46 100.25 910.45 99.69 C916.27 99.59 920.85 100.23 926.33 102.13 C933.46 104.21 940.32 104.43 947.71 104.38 C949.33 104.39 949.33 104.39 950.98 104.4 C952.53 104.4 952.53 104.4 954.11 104.4 C955.04 104.39 955.97 104.39 956.93 104.39 C959.6 104.29 959.6 104.29 962.33 102.13 C967.65 100.8 973.14 100.5 978.58 100 C979.58 99.91 980.58 99.81 981.61 99.7 C987.72 99.15 993.26 99.23 999.33 100.13 C999.33 100.79 999.33 101.45 999.33 102.13 C1000.32 102.13 1001.31 102.13 1002.33 102.13 C1001.63 105.11 1000.75 107.98 999.77 110.88 C999.5 111.68 999.23 112.48 998.95 113.3 C998.75 113.9 998.54 114.51 998.33 115.13 C997.67 115.13 997.01 115.13 996.33 115.13 C996.21 116.16 996.09 117.19 995.96 118.25 C995.39 121.75 994.55 124.81 993.33 128.13 C992.67 128.13 992.01 128.13 991.33 128.13 C991.4 129 991.46 129.86 991.52 130.75 C991.3 134.73 990.22 136.61 988.33 140.13 C987.03 143.15 985.78 146.2 984.52 149.24 C983.63 151.42 982.7 153.59 981.77 155.75 C978.63 163.12 975.79 170.51 973.33 178.13 C972.67 180.13 972 182.13 971.33 184.13 C970.34 184.13 969.35 184.13 968.33 184.13 C968.54 184.73 968.75 185.33 968.96 185.94 C969.33 188.13 969.33 188.13 967.33 191.13 C966.67 191.13 966.01 191.13 965.33 191.13 C965.4 191.79 965.46 192.45 965.52 193.13 C965.27 197.22 963.88 200.34 962.33 204.13 C961.67 204.13 961.01 204.13 960.33 204.13 C960.66 205.45 960.99 206.77 961.33 208.13 C960.67 208.13 960.01 208.13 959.33 208.13 C959.4 208.81 959.46 209.49 959.52 210.19 C959.27 214.05 957.98 216.64 956.33 220.13 C955.67 220.13 955.01 220.13 954.33 220.13 C953.52 224.78 952.9 229.44 952.33 234.13 C962.38 234.9 972.26 229.58 980.33 224.13 C980.99 224.13 981.65 224.13 982.33 224.13 C982.66 223.14 982.99 222.15 983.33 221.13 C984.99 220.22 986.64 219.31 988.31 218.42 C991.41 216.44 993.76 213.85 996.29 211.21 C998.88 208.57 1001.64 206.2 1004.46 203.81 C1006.28 202.18 1007.84 200.46 1009.46 198.63 C1012.33 196.13 1012.33 196.13 1015.71 196.25 C1016.57 196.54 1017.44 196.83 1018.33 197.13 C1018.33 197.79 1018.33 198.45 1018.33 199.13 C1019.32 199.13 1020.31 199.13 1021.33 199.13 C1021.33 199.79 1021.33 200.45 1021.33 201.13 C1021.99 201.13 1022.65 201.13 1023.33 201.13 C1023.66 202.45 1023.99 203.77 1024.33 205.13 C1024.99 205.13 1025.65 205.13 1026.33 205.13 C1027.59 208.04 1028.33 209.93 1028.33 213.13 C1029.32 213.46 1030.31 213.79 1031.33 214.13 C1031.33 216.44 1031.33 218.75 1031.33 221.13 C1030.34 221.13 1029.35 221.13 1028.33 221.13 C1028.33 221.79 1028.33 222.45 1028.33 223.13 C1026.35 224.82 1024.35 226.48 1022.33 228.13 C1022 228.79 1021.67 229.45 1021.33 230.13 C1019.6 231.11 1017.86 232.09 1016.11 233.04 C1014.13 234.16 1014.13 234.16 1012.08 236.38 C1011.51 236.96 1010.93 237.53 1010.33 238.13 C1009.34 238.13 1008.35 238.13 1007.33 238.13 C1007.33 238.79 1007.33 239.45 1007.33 240.13 C1006.67 240.13 1006.01 240.13 1005.33 240.13 C1005.33 240.79 1005.33 241.45 1005.33 242.13 C1004.34 242.46 1003.35 242.79 1002.33 243.13 C1001.67 244.12 1001.01 245.11 1000.33 246.13 C999.16 246.46 997.98 246.79 996.77 247.13 C995.64 247.46 994.5 247.79 993.33 248.13 C993 249.12 992.67 250.11 992.33 251.13 C991.38 251.21 990.44 251.29 989.46 251.38 C988.43 251.63 987.4 251.87 986.33 252.13 C985.65 253.45 984.98 254.79 984.33 256.13 C982.35 256.86 980.35 257.53 978.33 258.13 C978 258.79 977.67 259.45 977.33 260.13 C976.34 260.13 975.35 260.13 974.33 260.13 C974.33 260.79 974.33 261.45 974.33 262.13 C969.75 264.75 965.27 267.23 960.33 269.13 C959.04 269.81 957.75 270.5 956.46 271.19 C952.7 273.11 949.53 273.78 945.33 274.13 C945.33 274.79 945.33 275.45 945.33 276.13 C942.92 277.85 940.95 279.01 938.02 279.57 C935.45 280.11 933.76 280.86 931.46 282.07 C927.83 283.95 924.3 285.09 920.33 286.13 C918.87 286.67 917.42 287.21 915.96 287.75 C911.9 289.15 908.44 289.33 904.18 289.04 C902.08 288.93 902.08 288.93 900.33 291.13 C897.51 291.4 897.51 291.4 894.08 291.38 C892.96 291.38 891.85 291.39 890.69 291.4 C887.28 291.12 884.56 290.23 881.33 289.13 C880.67 289.46 880.01 289.79 879.33 290.13 C876.58 289.3 873.95 288.39 871.27 287.38 C870.53 287.11 869.78 286.85 869.01 286.57 C867.08 285.85 865.2 285 863.33 284.13 C863 283.14 862.67 282.15 862.33 281.13 C861.02 280.43 859.68 279.77 858.33 279.13 C847.56 271.12 840.93 261.64 836.33 249.13 C833.39 250.11 831.77 251.15 829.33 253 C828.31 253.77 828.31 253.77 827.27 254.56 C825.32 256.08 825.32 256.08 823.71 257.82 C822.33 259.13 822.33 259.13 820.33 259.13 C820 260.12 819.67 261.11 819.33 262.13 C817.68 262.13 816.03 262.13 814.33 262.13 C814.33 262.79 814.33 263.45 814.33 264.13 C813.67 264.13 813.01 264.13 812.33 264.13 C812.33 264.79 812.33 265.45 812.33 266.13 C810.33 267.13 808.33 268.13 806.33 269.13 C804.85 269.9 804.85 269.9 803.33 270.69 C796.16 274.13 796.16 274.13 792.33 274.13 C792.33 274.79 792.33 275.45 792.33 276.13 C787.95 278.59 784.3 279.54 779.33 280.13 C779 280.46 778.67 280.79 778.33 281.13 C776.33 281.36 774.33 281.59 772.32 281.81 C770.02 282.18 768.38 283.04 766.33 284.13 C761.95 285.1 757.81 285.13 753.33 285.13 C752.34 285.46 751.35 285.79 750.33 286.13 C748.46 286.22 746.58 286.26 744.71 286.25 C743.73 286.26 742.74 286.26 741.73 286.26 C739.33 286.13 739.33 286.13 738.33 285.13 C737.28 285.13 736.23 285.13 735.15 285.13 C729.87 285.13 726.01 284.47 721.33 282.13 C719.34 281.78 717.34 281.45 715.33 281.13 C710.98 279.88 707.54 278.19 703.77 275.69 C701.04 273.9 698.34 272.14 695.49 270.53 C694.78 270.07 694.07 269.61 693.33 269.13 C693.33 268.47 693.33 267.81 693.33 267.13 C692.47 266.79 692.47 266.79 691.58 266.44 C687.93 264.31 685.94 261.17 683.83 257.57 C682.45 255.09 682.45 255.09 680.44 253.34 C678.08 250.86 676.67 248.41 675.08 245.38 C674.3 243.9 674.3 243.9 673.51 242.4 C672.93 241.27 672.93 241.27 672.33 240.13 C666.48 242.04 661.05 244.22 655.58 247.07 C651.12 249.33 646.79 251.14 641.98 252.49 C640.12 253 640.12 253 639.33 255.13 C637.68 255.84 636.01 256.49 634.33 257.13 C631.17 258.65 628 260.17 624.86 261.74 C621.21 263.5 618.41 264.55 614.33 264.13 C614 264.79 613.67 265.45 613.33 266.13 C611.36 267.18 609.36 268.18 607.33 269.13 C606.34 269.62 606.34 269.62 605.33 270.13 C603.33 270.17 601.33 270.17 599.33 270.13 C599.33 270.79 599.33 271.45 599.33 272.13 C598.6 272.38 597.86 272.64 597.1 272.9 C596.13 273.24 595.15 273.59 594.15 273.94 C593.18 274.28 592.22 274.61 591.23 274.96 C588.32 276.04 588.32 276.04 585.85 277.67 C583 279.32 580.48 279.98 577.27 280.69 C573.13 281.6 573.13 281.6 569.22 283.18 C567.12 284.23 565.48 284.49 563.15 284.69 C559.55 284.7 559.55 284.7 558.33 286.13 C556.34 286.35 554.34 286.58 552.34 286.75 C550.03 287.05 550.03 287.05 547.33 289.13 C543.04 289.66 538.72 289.59 534.4 289.63 C532.64 289.69 532.64 289.69 530.84 289.75 C521.95 289.83 515.9 287.7 508.33 283.13 C507.69 282.77 507.04 282.4 506.37 282.03 C502.87 279.93 501.27 277.65 499.33 274.13 C498.67 273.49 498.01 272.85 497.33 272.19 C493.77 268.52 492.39 265.36 492.15 260.25 C492.21 259.22 492.27 258.19 492.33 257.13 C492 257.13 491.67 257.13 491.33 257.13 C491.33 253.5 491.33 249.87 491.33 246.13 C490.32 246.6 489.31 247.08 488.27 247.57 C484.66 249.13 481.23 249.61 477.33 250.13 C475.98 250.76 474.65 251.43 473.33 252.13 C472.45 252.29 471.56 252.46 470.65 252.63 C469.5 252.88 469.5 252.88 468.33 253.13 C468 253.79 467.67 254.45 467.33 255.13 C465.69 255.85 464.02 256.5 462.33 257.13 C459.57 258.41 456.81 259.7 454.05 261.01 C451.45 262.08 449.09 262.61 446.33 263.13 C444.69 263.71 443.07 264.34 441.46 265 C440.15 265.53 440.15 265.53 438.82 266.07 C437.33 266.71 435.84 267.36 434.38 268.06 C430.2 270.04 426.93 270.41 422.33 270.13 C422 271.12 421.67 272.11 421.33 273.13 C418.79 274.08 418.79 274.08 415.58 274.82 C414.54 275.07 413.49 275.32 412.41 275.58 C409.63 276.08 407.15 276.24 404.33 276.13 C404.33 276.79 404.33 277.45 404.33 278.13 C399.4 280.17 395.75 281.54 390.33 281.13 C390.33 281.79 390.33 282.45 390.33 283.13 C389.43 283.26 388.53 283.39 387.6 283.53 C386.42 283.71 385.24 283.88 384.02 284.07 C382.85 284.24 381.68 284.41 380.47 284.59 C377.32 285.05 377.32 285.05 374.33 286.13 C371.61 286.23 368.93 286.27 366.21 286.25 C365.47 286.26 364.73 286.26 363.96 286.27 C358.46 286.26 358.46 286.26 357.33 285.13 C354.86 284.59 352.37 284.17 349.88 283.73 C347.43 283.15 345.52 282.35 343.33 281.13 C343.33 280.14 343.33 279.15 343.33 278.13 C342.01 278.13 340.69 278.13 339.33 278.13 C339.33 277.47 339.33 276.81 339.33 276.13 C338.47 275.79 338.47 275.79 337.58 275.44 C334.7 273.76 333.36 271.79 331.33 269.13 C330.15 267.86 328.96 266.59 327.77 265.32 C323.73 260.72 321.54 256.36 321.15 250.13 C321.21 249.47 321.27 248.81 321.33 248.13 C318.22 248.78 318.22 248.78 317.33 251.13 C316.01 251.13 314.69 251.13 313.33 251.13 C313.33 252.12 313.33 253.11 313.33 254.13 C310 256.63 308.6 257.13 304.33 257.13 C304.13 257.89 303.92 258.66 303.71 259.44 C301.87 263.03 299.96 263.45 296.33 265.13 C295.23 265.68 294.13 266.24 293 266.81 C274.51 276.13 274.51 276.13 271.33 276.13 C271.33 276.79 271.33 277.45 271.33 278.13 C270.19 278.39 269.05 278.66 267.87 278.93 C266.38 279.29 264.89 279.65 263.4 280 C262.64 280.18 261.89 280.35 261.11 280.53 C259.17 281 257.25 281.56 255.33 282.13 C255 282.79 254.67 283.45 254.33 284.13 C253.05 284.19 251.76 284.25 250.43 284.31 C248.75 284.4 247.07 284.48 245.4 284.57 C244.55 284.61 243.7 284.65 242.82 284.69 C242.01 284.73 241.2 284.77 240.37 284.81 C239.62 284.85 238.87 284.89 238.1 284.92 C236.31 284.95 236.31 284.95 235.33 286.13 C233.34 286.23 231.33 286.26 229.33 286.25 C228.24 286.26 227.15 286.26 226.02 286.26 C223.33 286.13 223.33 286.13 222.33 285.13 C220.23 284.92 218.13 284.76 216.02 284.63 C210.63 284.29 206.07 283.42 200.96 281.75 C200.23 281.52 199.5 281.29 198.75 281.04 C193.33 278.99 188.39 276.07 183.46 273.07 C182.57 272.54 182.57 272.54 181.66 272 C180.18 271.1 178.75 270.12 177.33 269.13 C177.33 268.47 177.33 267.81 177.33 267.13 C176.34 266.8 175.35 266.47 174.33 266.13 C174.33 265.47 174.33 264.81 174.33 264.13 C173.48 263.8 173.48 263.8 172.61 263.47 C169.57 261.68 168.04 259.47 165.96 256.63 C165.37 255.84 165.37 255.84 164.78 255.03 C161.31 250.25 158.23 245.27 155.33 240.13 C154.59 240.46 153.85 240.79 153.08 241.13 C150.33 242.13 150.33 242.13 146.33 242.13 C146.33 242.79 146.33 243.45 146.33 244.13 C145.37 244.54 144.41 244.95 143.41 245.37 C142.14 245.92 140.86 246.46 139.58 247 C138.95 247.27 138.32 247.54 137.66 247.82 C134.5 249.17 131.39 250.55 128.33 252.13 C120.33 256.13 120.33 256.13 112.33 260.13 C111.63 260.5 110.93 260.87 110.2 261.25 C104.4 264.25 98.5 266.65 92.38 268.93 C89.16 270.2 86.15 271.69 83.09 273.3 C80.3 274.62 77.3 275.28 74.33 276.13 C73.01 276.8 71.7 277.48 70.4 278.19 C66.36 280.32 62.87 280.81 58.33 281.13 C58.33 281.79 58.33 282.45 58.33 283.13 C52.32 284.78 46.37 285.76 40.19 286.57 C37.15 286.98 37.15 286.98 34.33 289.13 C32.36 289.46 32.36 289.46 30.12 289.58 C29.3 289.62 28.47 289.67 27.62 289.71 C26.74 289.75 25.86 289.78 24.96 289.82 C24.06 289.86 23.17 289.9 22.25 289.94 C4.3 290.61 4.3 290.61 -0.67 288.13 C-0.67 287.47 -0.67 286.81 -0.67 286.13 C-1.68 286.34 -2.69 286.54 -3.73 286.75 C-8.03 287.16 -10.61 286.53 -14.67 285.13 C-17.66 284.12 -20.66 283.13 -23.67 282.16 C-34.33 278.71 -34.33 278.71 -38.67 276.13 C-39 275.47 -39.33 274.81 -39.67 274.13 C-41.4 273.38 -43.14 272.63 -44.9 271.91 C-47.09 270.94 -48.8 269.63 -50.67 268.13 C-51.87 267.42 -51.87 267.42 -53.1 266.69 C-57.07 264.27 -60.39 261.4 -63.67 258.13 C-64.33 257.8 -64.99 257.47 -65.67 257.13 C-65.67 256.47 -65.67 255.81 -65.67 255.13 C-66.33 255.13 -66.99 255.13 -67.67 255.13 C-70.1 251.76 -70.67 250.4 -70.67 246.13 C-70.01 246.13 -69.35 246.13 -68.67 246.13 C-68.6 245.24 -68.54 244.36 -68.48 243.44 C-67.47 239.33 -65.69 238.01 -62.67 235.13 C-60.87 231.96 -60.87 231.96 -59.67 229.13 C-58.02 229.46 -56.37 229.79 -54.67 230.13 C-54.67 230.79 -54.67 231.45 -54.67 232.13 C-53.68 232.47 -53.68 232.47 -52.67 232.82 C-50.12 233.93 -48.19 235.09 -45.92 236.63 C-35.69 243.04 -21.16 242.39 -9.67 240.13 C-9.67 239.47 -9.67 238.81 -9.67 238.13 C-8.88 237.89 -8.88 237.89 -8.08 237.64 C0.62 234.42 7.59 227.56 12.53 219.78 C13.13 218.9 13.72 218.03 14.33 217.13 C14.99 217.13 15.65 217.13 16.33 217.13 C16.42 216.43 16.5 215.73 16.58 215 C17.33 212.13 17.33 212.13 19.21 209.44 C21.49 205.88 22.48 202.75 23.52 198.69 C24.33 196.13 24.33 196.13 25.86 193.46 C27.56 189.62 27.78 186.36 27.77 182.24 C27.77 181.49 27.78 180.75 27.78 179.98 C27.79 178.41 27.79 176.84 27.78 175.27 C27.77 172.9 27.8 170.53 27.83 168.16 C27.87 159.96 27.81 152.34 23.33 145.13 C22.79 144.59 22.25 144.05 21.7 143.5 C20.33 142.13 20.33 142.13 20.33 140.13 C19.65 139.86 18.97 139.59 18.27 139.32 C16.23 138.49 14.21 137.61 12.21 136.69 C4.77 133.53 -2.37 131.7 -10.48 132.22 C-13 132.12 -14.5 131.39 -16.67 130.13 C-15.88 126.72 -14.77 123.45 -13.67 120.13 C-13.44 119.3 -13.21 118.48 -12.98 117.63 C-12.73 116.74 -12.48 115.85 -12.23 114.94 C-12 114.1 -11.78 113.26 -11.55 112.4 C-10.6 109.96 -9.74 108.72 -7.67 107.13 C-5.48 107.44 -5.48 107.44 -3.67 108.13 C-3.67 107.8 -3.67 107.47 -3.67 107.13 C-1 107.13 1.67 107.13 4.33 107.13 C22.64 105.4 36.51 102.33 49.15 88.09 C59.94 74.57 59.65 59.61 59.33 43.13 C58.67 43.13 58.01 43.13 57.33 43.13 C57.25 42.35 57.17 41.56 57.08 40.75 C56.63 38.05 56.63 38.05 54.65 37.07 C53.88 36.76 53.12 36.45 52.33 36.13 C51.43 35.47 50.52 34.81 49.58 34.13 C43.28 30.25 36.65 29.51 29.33 30.13 C28.34 30.46 27.35 30.79 26.33 31.13 C24.61 31.2 22.88 31.21 21.15 31.19 C20.24 31.18 19.34 31.17 18.42 31.16 C17.73 31.15 17.04 31.14 16.33 31.13 C16 32.12 15.67 33.11 15.33 34.13 C11 37.13 11 37.13 8.33 37.13 C8.3 37.71 8.26 38.29 8.22 38.89 C7.79 43.98 6.9 47.62 4.33 52.13 C3.65 53.79 2.99 55.46 2.33 57.13 C-2.13 68.08 -2.13 68.08 -4.35 72.44 C-5.82 75.23 -5.82 75.23 -6.73 78.88 C-7.67 82.13 -7.67 82.13 -9.67 84.13 C-10.26 85.63 -10.77 87.16 -11.25 88.71 C-11.69 90.08 -11.69 90.08 -12.14 91.48 C-12.73 93.4 -13.33 95.31 -13.92 97.23 C-15.61 102.51 -17.42 106.65 -20.67 111.13 C-21.45 113.86 -21.45 113.86 -21.67 116.13 C-22.33 116.13 -22.99 116.13 -23.67 116.13 C-23.82 117.58 -23.82 117.58 -23.98 119.07 C-24.61 123.62 -26.11 127.82 -27.67 132.13 C-28.33 132.13 -28.99 132.13 -29.67 132.13 C-29.82 133.65 -29.82 133.65 -29.98 135.19 C-30.7 139.34 -31.95 142.32 -33.67 146.13 C-33.67 146.79 -33.67 147.45 -33.67 148.13 C-34.33 148.13 -34.99 148.13 -35.67 148.13 C-35.86 148.71 -36.05 149.29 -36.25 149.89 C-37.72 154.3 -39.2 158.72 -40.67 163.13 C-41.33 163.13 -41.99 163.13 -42.67 163.13 C-42.78 163.7 -42.89 164.27 -43 164.85 C-44.21 170.73 -45.98 175.75 -48.67 181.13 C-49.33 181.13 -49.99 181.13 -50.67 181.13 C-50.77 181.83 -50.87 182.53 -50.98 183.25 C-51.76 186.52 -53.09 189.18 -54.67 192.13 C-55.33 192.13 -55.99 192.13 -56.67 192.13 C-56.6 193.04 -56.54 193.94 -56.48 194.88 C-56.68 198.42 -57.19 199.66 -59.67 202.13 C-60.33 202.13 -60.99 202.13 -61.67 202.13 C-61.82 203.43 -61.82 203.43 -61.98 204.75 C-62.7 208.3 -63.94 210.97 -65.67 214.13 C-66.33 214.13 -66.99 214.13 -67.67 214.13 C-67.82 215.21 -67.82 215.21 -67.98 216.32 C-68.73 219.41 -69.82 221.55 -71.67 224.13 C-72.33 224.13 -72.99 224.13 -73.67 224.13 C-73.81 224.91 -73.96 225.7 -74.1 226.5 C-74.67 229.13 -74.67 229.13 -75.67 231.13 C-76.33 231.13 -76.99 231.13 -77.67 231.13 C-77.67 232.12 -77.67 233.11 -77.67 234.13 C-78.33 234.13 -78.99 234.13 -79.67 234.13 C-79.91 234.85 -80.16 235.57 -80.42 236.32 C-81.78 239.38 -83.56 241.54 -85.67 244.13 C-86 245.12 -86.33 246.11 -86.67 247.13 C-87.45 247.75 -88.23 248.37 -89.04 249 C-91.77 250.95 -91.77 250.95 -93.17 253.69 C-94.95 256.59 -96.78 257.43 -99.67 259.13 C-100 259.79 -100.33 260.45 -100.67 261.13 C-102.04 263.88 -104.03 264.64 -106.67 266.13 C-107 266.79 -107.33 267.45 -107.67 268.13 C-110.29 269.7 -111.54 270.13 -114.67 270.13 C-115 271.12 -115.33 272.11 -115.67 273.13 C-117.33 273.81 -118.99 274.48 -120.67 275.13 C-121.33 276.12 -121.99 277.11 -122.67 278.13 C-125.99 279.72 -129.42 280.65 -132.98 281.57 C-136.34 282.45 -139.52 283.42 -142.73 284.75 C-150.4 287.68 -158.64 287.22 -166.73 287.25 C-167.99 287.26 -167.99 287.26 -169.27 287.27 C-177.38 287.25 -184.9 286.58 -192.67 284.13 C-193.86 283.79 -193.86 283.79 -195.08 283.44 C-203.95 280.88 -211.2 277.34 -219.09 272.56 C-221.47 270.97 -221.47 270.97 -223.67 271.13 C-223.67 270.47 -223.67 269.81 -223.67 269.13 C-224.45 268.82 -225.23 268.51 -226.04 268.19 C-228.67 267.13 -228.67 267.13 -230.67 266.13 C-230.67 265.47 -230.67 264.81 -230.67 264.13 C-232 263.79 -232 263.79 -233.35 263.44 C-237.15 261.94 -238.92 260.1 -241.67 257.13 C-242.43 256.57 -243.19 256.02 -243.98 255.44 C-244.54 255.01 -245.09 254.58 -245.67 254.13 C-245.67 253.47 -245.67 252.81 -245.67 252.13 C-246.66 251.8 -247.65 251.47 -248.67 251.13 C-248.7 247.65 -248.71 244.17 -248.73 240.69 C-248.74 239.72 -248.75 238.74 -248.75 237.74 C-248.77 231.79 -248.62 226.01 -247.67 220.13 C-247.01 219.8 -246.35 219.47 -245.67 219.13 C-243.96 220.41 -242.29 221.75 -240.67 223.13 C-240.67 223.79 -240.67 224.45 -240.67 225.13 C-240.03 225.23 -239.39 225.34 -238.73 225.44 C-237.71 225.78 -237.71 225.78 -236.67 226.13 C-236.34 227.12 -236.01 228.11 -235.67 229.13 C-235.01 229.21 -234.35 229.29 -233.67 229.38 C-230.43 230.19 -227.92 231.47 -225.02 233.09 C-218.9 235.79 -212.64 236.49 -206.04 236.82 C-204.95 236.89 -204.95 236.89 -203.85 236.96 C-199.65 237.19 -195.78 237.17 -191.67 236.13 C-190.23 234.18 -190.23 234.18 -189.67 232.13 C-189.01 232.13 -188.35 232.13 -187.67 232.13 C-187.4 231.16 -187.13 230.19 -186.85 229.19 C-186.46 228.18 -186.07 227.17 -185.67 226.13 C-184.68 225.8 -183.69 225.47 -182.67 225.13 C-181.75 223.2 -181.75 223.2 -181.17 220.88 C-180.06 217.24 -178.75 214.34 -176.67 211.13 C-176.15 210.06 -175.64 208.98 -175.1 207.88 C-173.67 205.13 -173.67 205.13 -171.67 204.13 C-170.53 201.73 -169.49 199.33 -168.48 196.88 C-165.74 190.42 -162.7 184.32 -159.3 178.18 C-157.25 174.35 -155.46 170.44 -153.71 166.47 C-153.05 164.99 -152.36 163.53 -151.62 162.1 C-150.6 160 -149.91 157.92 -149.23 155.69 C-148.09 152.16 -146.67 149.27 -144.67 146.13 C-143.99 144.47 -143.33 142.8 -142.67 141.13 C-142.09 140.04 -141.51 138.94 -140.92 137.82 C-137.09 130.3 -134.33 122.12 -131.67 114.13 C-131.01 114.13 -130.35 114.13 -129.67 114.13 C-129.19 112.55 -128.71 110.96 -128.23 109.38 C-127.96 108.5 -127.7 107.62 -127.42 106.71 C-126.65 104.2 -126.65 104.2 -126.19 101.86 C-126.02 101.29 -125.85 100.72 -125.67 100.13 C-125.01 99.8 -124.35 99.47 -123.67 99.13 C-122.76 97.09 -122.76 97.09 -122.04 94.69 C-121.78 93.89 -121.52 93.09 -121.25 92.26 C-120.58 90.18 -120.58 90.18 -120.67 88.13 C-120.01 87.8 -119.35 87.47 -118.67 87.13 C-117.75 84.32 -117.75 84.32 -117.04 81.07 C-116.78 79.96 -116.52 78.86 -116.25 77.72 C-116.06 76.86 -115.87 76.01 -115.67 75.13 C-116.72 75.6 -117.77 76.08 -118.85 76.57 C-121.77 77.82 -124.51 78.65 -127.67 79.13 C-128.16 80.61 -128.16 80.61 -128.67 82.13 C-130.95 83.08 -130.95 83.08 -133.73 83.82 C-134.65 84.07 -135.57 84.32 -136.51 84.58 C-137.22 84.76 -137.93 84.94 -138.67 85.13 C-138.67 85.79 -138.67 86.45 -138.67 87.13 C-139.57 87.38 -140.48 87.62 -141.42 87.88 C-144.82 89.19 -146.26 90.47 -148.67 93.13 C-151.67 95.13 -151.67 95.13 -154.67 95.13 C-154.67 95.79 -154.67 96.45 -154.67 97.13 C-157.04 98.19 -157.04 98.19 -159.67 99.13 C-160.33 98.8 -160.99 98.47 -161.67 98.13 C-161.67 99.12 -161.67 100.11 -161.67 101.13 C-162.33 101.13 -162.99 101.13 -163.67 101.13 C-164.16 102.61 -164.16 102.61 -164.67 104.13 C-166.95 105.3 -166.95 105.3 -169.73 106.32 C-170.65 106.66 -171.57 107.01 -172.51 107.36 C-173.22 107.61 -173.93 107.87 -174.67 108.13 C-177.08 105.91 -178.69 103.67 -180.29 100.82 C-180.72 100.08 -181.14 99.34 -181.58 98.58 C-182.89 95.63 -183.55 93.36 -183.67 90.13 C-182.08 87.64 -182.08 87.64 -179.73 85.25 C-178.49 83.97 -178.49 83.97 -177.22 82.67 C-176.38 81.83 -175.54 80.99 -174.67 80.13 C-173.93 79.35 -173.19 78.58 -172.42 77.78 C-169.31 74.55 -166.76 72.03 -162.67 70.13 C-160.22 68.31 -157.93 66.38 -155.7 64.3 C-150.97 59.94 -146.28 56.47 -140.64 53.36 C-138.52 52.28 -138.52 52.28 -137.67 50.13 C-137.01 50.13 -136.35 50.13 -135.67 50.13 C-135.17 49.14 -135.17 49.14 -134.67 48.13 C-132.37 47.29 -130.05 46.66 -127.7 46.01 C-127.03 45.72 -126.36 45.43 -125.67 45.13 C-125.34 44.14 -125.01 43.15 -124.67 42.13 C-123.03 41.07 -123.03 41.07 -120.98 40.13 C-120.26 39.79 -119.54 39.46 -118.8 39.11 C-118.09 38.79 -117.39 38.46 -116.67 38.13 C-115.59 37.55 -114.52 36.97 -113.42 36.38 C-110.67 35.13 -110.67 35.13 -106.67 35.13 C-106.67 34.14 -106.67 33.15 -106.67 32.13 C-105.99 31.9 -105.31 31.67 -104.61 31.43 C-99.81 29.75 -95.19 27.98 -90.67 25.63 C-84.26 22.32 -77.57 19.87 -70.6 18 C-67.58 17.36 -67.58 17.36 -65.67 15.13 C-63.53 14.6 -63.53 14.6 -60.98 14.19 C-56.52 13.38 -52.8 12.01 -48.67 10.13 C-43.32 8.11 -38.33 6.94 -32.67 6.13 C-31.33 5.67 -29.99 5.19 -28.67 4.69 C-23.25 2.77 -17.7 2.22 -12.02 1.56 C-8.88 1.23 -8.88 1.23 -6.75 0.61 C-4.44 0.08 -2.37 0 0 0 Z M602.33 65.13 C602.33 65.46 602.33 65.79 602.33 66.13 C603.98 66.13 605.63 66.13 607.33 66.13 C607.33 65.8 607.33 65.47 607.33 65.13 C605.68 65.13 604.03 65.13 602.33 65.13 Z M1000.33 103.13 C1001.33 105.13 1001.33 105.13 1001.33 105.13 Z M514.33 104.13 C515.33 106.13 515.33 106.13 515.33 106.13 Z M9.33 107.13 C13.33 108.13 13.33 108.13 13.33 108.13 Z M318.33 128.13 C316.6 128.9 316.6 128.9 314.83 129.69 C312.56 131 311.12 132.26 309.33 134.13 C308.34 134.46 307.35 134.79 306.33 135.13 C304.62 136.5 304.62 136.5 303.33 138.13 C303.33 138.79 303.33 139.45 303.33 140.13 C302.74 140.24 302.15 140.34 301.54 140.45 C299.03 141.22 297.91 142.15 296.08 144 C295.56 144.52 295.04 145.03 294.51 145.56 C293.03 147.2 293.03 147.2 293.33 150.13 C292.46 150.52 292.46 150.52 291.56 150.92 C286.09 153.89 282.42 158.34 280.33 164.13 C279.03 165.17 277.7 166.17 276.33 167.13 C276.33 167.79 276.33 168.45 276.33 169.13 C275.67 169.13 275.01 169.13 274.33 169.13 C274 171.11 273.67 173.09 273.33 175.13 C272.67 175.13 272.01 175.13 271.33 175.13 C269.97 178.45 268.64 181.78 267.33 185.13 C267.03 185.92 266.72 186.7 266.4 187.52 C264.54 192.6 264.04 196.72 264.33 202.13 C263.34 202.62 263.34 202.62 262.33 203.13 C262.57 205.3 262.81 207.46 263.07 209.63 C263.23 211.15 263.35 212.67 263.41 214.19 C263.75 220.25 266.35 224.62 270.33 229.13 C273.62 231.71 277.2 233.42 281.33 234.13 C282.67 234.46 284 234.8 285.33 235.13 C285.66 234.47 285.99 233.81 286.33 233.13 C287.1 233.36 287.86 233.58 288.65 233.82 C289.53 233.92 290.42 234.02 291.33 234.13 C292.79 232.84 292.79 232.84 294.33 231.13 C295.39 230.7 296.45 230.28 297.54 229.84 C301.47 228.21 304.53 225.81 307.71 223 C308.27 222.52 308.83 222.03 309.4 221.53 C318.58 213.82 318.58 213.82 325.58 204.25 C327.33 201.13 327.33 201.13 329.83 199.69 C333.04 197.69 333.81 195.58 335.24 192.16 C336.33 190.13 336.33 190.13 338.27 188.2 C340.53 185.93 341.79 183.78 343.27 180.94 C345.14 177.39 347.05 173.9 349.08 170.44 C352.04 165.14 353.33 160.25 353.33 154.13 C353.99 154.13 354.65 154.13 355.33 154.13 C357.22 147.07 357.2 139.58 354.33 132.82 C352.79 130.21 350.89 128.7 348.33 127.13 C347.67 127.13 347.01 127.13 346.33 127.13 C345.84 126.14 345.84 126.14 345.33 125.13 C336.12 122.06 326.9 124.25 318.33 128.13 Z M842.33 124.13 C842 124.79 841.67 125.45 841.33 126.13 C838.78 127.02 836.2 127.66 833.58 128.35 C831.16 128.9 831.16 128.9 830.33 131.13 C828.27 131.75 828.27 131.75 826.33 132.13 C826.33 132.79 826.33 133.45 826.33 134.13 C825.67 134.13 825.01 134.13 824.33 134.13 C824 134.79 823.67 135.45 823.33 136.13 C822.71 136.27 822.1 136.42 821.46 136.57 C818.88 137.25 818.09 138.15 816.33 140.13 C815.76 140.69 815.18 141.24 814.58 141.82 C812 144.47 809.57 147.23 807.15 150.03 C805.96 151.41 804.76 152.77 803.55 154.13 C803 154.75 802.46 155.37 801.9 156 C801.4 156.56 800.91 157.11 800.4 157.68 C799.14 159.1 799.14 159.1 799.33 161.13 C798.67 161.13 798.01 161.13 797.33 161.13 C795.02 164.35 795.02 164.35 794.33 168.13 C792.85 168.62 792.85 168.62 791.33 169.13 C790.11 172.14 790.11 172.14 789.33 175.13 C788.67 175.13 788.01 175.13 787.33 175.13 C784.72 181.09 782.8 186.77 781.73 193.2 C781.33 195.13 781.33 195.13 780.33 196.13 C780.18 197.84 780.08 199.55 780.02 201.26 C779.98 202.29 779.93 203.33 779.89 204.39 C779.85 205.48 779.81 206.57 779.77 207.69 C779.73 208.78 779.68 209.88 779.64 211 C779.53 213.71 779.43 216.42 779.33 219.13 C779.99 219.46 780.65 219.79 781.33 220.13 C781.67 221.8 782 223.46 782.33 225.13 C782.99 225.46 783.65 225.79 784.33 226.13 C784.66 227.12 784.99 228.11 785.33 229.13 C787.05 230.33 787.05 230.33 789.15 231.25 C790.18 231.75 790.18 231.75 791.23 232.26 C793.26 233.1 795.2 233.64 797.33 234.13 C798.03 234.36 798.74 234.58 799.46 234.82 C800.08 234.92 800.7 235.02 801.33 235.13 C802.32 234.14 802.32 234.14 803.33 233.13 C805 233.13 806.67 233.13 808.33 233.13 C817.51 229.59 825.67 222.18 832.33 215.13 C833.09 214.38 833.85 213.64 834.63 212.87 C845.76 201.57 854.54 188.9 862.33 175.13 C862.82 174.29 863.31 173.45 863.81 172.58 C866.15 168.5 868.03 164.68 869.33 160.13 C869.58 159.34 869.83 158.56 870.08 157.75 C873.8 146.25 873.8 146.25 871.14 134.79 C868.19 130.03 865.78 127.07 860.33 125.13 C860.33 124.8 860.33 124.47 860.33 124.13 C854.39 124.13 848.45 124.13 842.33 124.13 Z M778.33 205.13 C778.33 206.78 778.33 208.43 778.33 210.13 C778.66 210.13 778.99 210.13 779.33 210.13 C779.33 208.48 779.33 206.83 779.33 205.13 C779 205.13 778.67 205.13 778.33 205.13 Z M950.33 227.13 C951.33 231.13 951.33 231.13 951.33 231.13 Z M-211.67 238.13 C-211.67 238.46 -211.67 238.79 -211.67 239.13 C-208.04 239.13 -204.41 239.13 -200.67 239.13 C-200.67 238.8 -200.67 238.47 -200.67 238.13 C-204.3 238.13 -207.93 238.13 -211.67 238.13 Z M-28.67 243.13 C-28.67 243.46 -28.67 243.79 -28.67 244.13 C-26.36 244.13 -24.05 244.13 -21.67 244.13 C-21.67 243.8 -21.67 243.47 -21.67 243.13 C-23.98 243.13 -26.29 243.13 -28.67 243.13 Z M1.33 287.13 C1.33 287.46 1.33 287.79 1.33 288.13 C4.63 288.13 7.93 288.13 11.33 288.13 C11.33 287.8 11.33 287.47 11.33 287.13 C8.03 287.13 4.73 287.13 1.33 287.13 Z M19.33 287.13 C19.33 287.46 19.33 287.79 19.33 288.13 C23.95 288.13 28.57 288.13 33.33 288.13 C33.33 287.8 33.33 287.47 33.33 287.13 C28.71 287.13 24.09 287.13 19.33 287.13 Z " fill="#DC0719" transform="translate(248.66650390625,-0.12939453125)"/>
<path d="M0 0 C0.33 1.32 0.66 2.64 1 4 C11.56 4 22.12 4 33 4 C33.5 4.99 33.5 4.99 34 6 C22.78 6 11.56 6 0 6 C-1.25 3.51 -0.78 2.59 0 0 Z " fill="#89241E" transform="translate(759,123)"/>
<path d="M0 0 C0.72 0.26 1.43 0.53 2.17 0.8 C2.17 1.46 2.17 2.12 2.17 2.8 C0.87 3.14 0.87 3.14 -0.46 3.48 C-5.54 5.46 -9.09 8.84 -12.83 12.8 C-12.83 8.59 -11.04 7.51 -8.14 4.55 C-7.27 3.63 -6.4 2.72 -5.51 1.78 C-2.83 -0.2 -2.83 -0.2 0 0 Z M-16.83 12.8 C-15.84 13.13 -14.85 13.46 -13.83 13.8 C-14.82 14.46 -15.81 15.12 -16.83 15.8 C-16.83 14.81 -16.83 13.82 -16.83 12.8 Z " fill="#C11921" transform="translate(1263.83203125,196.203125)"/>
<path d="M0 0 C-1.59 3.9 -4.13 6.34 -7.12 9.25 C-8.04 10.14 -8.95 11.03 -9.88 11.95 C-10.58 12.63 -11.28 13.3 -12 14 C-12.66 13.34 -13.32 12.68 -14 12 C-12.05 9.99 -10.09 8 -8.12 6 C-7.29 5.14 -7.29 5.14 -6.44 4.27 C-2.23 0 -2.23 0 0 0 Z " fill="#BF141D" transform="translate(573,208)"/>
<path d="M0 0 C0 0.99 0 1.98 0 3 C-1.39 3.95 -2.78 4.88 -4.21 5.76 C-7.54 8.07 -10.21 11.09 -13 14 C-14 15 -15 16 -16 17 C-15.42 13.74 -14.47 12.09 -12.13 9.77 C-11.55 9.19 -10.98 8.62 -10.39 8.03 C-9.48 7.15 -9.48 7.15 -8.56 6.25 C-7.96 5.65 -7.36 5.05 -6.75 4.43 C-2.27 0 -2.27 0 0 0 Z " fill="#D21521" transform="translate(84,72)"/>
<path d="M0 0 C0.7 0.05 1.39 0.1 2.11 0.16 C3.83 0.29 5.54 0.42 7.25 0.56 C5.25 2.56 5.25 2.56 1.34 2.76 C-0.23 2.74 -1.8 2.72 -3.38 2.69 C-4.18 2.68 -4.98 2.67 -5.8 2.66 C-7.79 2.64 -9.77 2.6 -11.75 2.56 C-11.75 1.9 -11.75 1.24 -11.75 0.56 C-7.85 -0.8 -4.04 -0.33 0 0 Z " fill="#981E1D" transform="translate(251.75,0.4375)"/>
<path d="M0 0 C0.66 0.33 1.32 0.66 2 1 C1.01 2.49 1.01 2.49 0 4 C0 2.68 0 1.36 0 0 Z M-3 4 C-2.34 4.66 -1.68 5.32 -1 6 C-2.98 6.99 -2.98 6.99 -5 8 C-5 8.66 -5 9.32 -5 10 C-6.38 11.62 -6.38 11.62 -8 13 C-8.66 13 -9.32 13 -10 13 C-10.33 13.66 -10.66 14.32 -11 15 C-11.33 14.01 -11.66 13.02 -12 12 C-9.15 9.07 -6.35 6.36 -3 4 Z " fill="#CA292D" transform="translate(1090,204)"/>
<path d="M0 0 C0.66 0.33 1.32 0.66 2 1 C-2.75 5 -2.75 5 -5 5 C-4.19 3.06 -4.19 3.06 -3 1 C-2.01 0.67 -1.02 0.34 0 0 Z M-7 6 C-6.34 6.33 -5.68 6.66 -5 7 C-5.66 8.32 -6.32 9.64 -7 11 C-7.66 10.01 -8.32 9.02 -9 8 C-8.34 7.34 -7.68 6.68 -7 6 Z " fill="#C12429" transform="translate(961,138)"/>
<path d="M0 0 C0.52 0.39 1.03 0.78 1.56 1.19 C-2.67 3.6 -5.56 4.54 -10.44 4.19 C-8.54 0.39 -3.95 -1.32 0 0 Z " fill="#B51B21" transform="translate(207.4375,8.8125)"/>
<path d="M0 0 C3.96 0 7.92 0 12 0 C12 0.33 12 0.66 12 1 C8.04 1 4.08 1 0 1 C0 0.67 0 0.34 0 0 Z " fill="#D9987F" transform="translate(774,289)"/>
<path d="M0 0 C3.96 0 7.92 0 12 0 C12 0.33 12 0.66 12 1 C8.04 1 4.08 1 0 1 C0 0.67 0 0.34 0 0 Z " fill="#89241E" transform="translate(915,97)"/>
<path d="M0 0 C1.98 0 3.96 0 6 0 C6 0.33 6 0.66 6 1 C4.02 1 2.04 1 0 1 C0 0.67 0 0.34 0 0 Z " fill="#89241E" transform="translate(929,97)"/>
<path d="M0 0 C1.65 0 3.3 0 5 0 C5 0.33 5 0.66 5 1 C3.35 1 1.7 1 0 1 C0 0.67 0 0.34 0 0 Z " fill="#D9987F" transform="translate(1151,289)"/>
<path d="M0 0 C4 1 4 1 4 1 Z " fill="#D9987F" transform="translate(242,132)"/>
<path d="M0 0 C1.49 0.99 1.49 0.99 3 2 C2.01 2 1.02 2 0 2 C0 1.34 0 0.68 0 0 Z " fill="#220907" transform="translate(232,131)"/>
<path d="M0 0 C4 1 4 1 4 1 Z " fill="#DE0619" transform="translate(306,0)"/>
<path d="" fill="#DE0619" transform="translate(0,0)"/>
<path d="M0 0 C3 1 3 1 3 1 Z " fill="#000000" transform="translate(338,122)"/>
<path d="M0 0 C3 1 3 1 3 1 Z " fill="#89241E" transform="translate(937,97)"/>
<path d="M0 0 C2 1 2 1 2 1 Z " fill="#D9987F" transform="translate(1130,289)"/>
<path d="M0 0 C2 1 2 1 2 1 Z " fill="#000000" transform="translate(985,285)"/>
<path d="M0 0 C2 1 2 1 2 1 Z " fill="#000000" transform="translate(808,285)"/>
<path d="M0 0 C2 1 2 1 2 1 Z " fill="#000000" transform="translate(626,285)"/>
<path d="M0 0 C2 1 2 1 2 1 Z " fill="#000000" transform="translate(485,285)"/>
<path d="M0 0 C2 1 2 1 2 1 Z " fill="#000000" transform="translate(469,285)"/>
<path d="M0 0 C2 1 2 1 2 1 Z " fill="#000000" transform="translate(296,285)"/>
<path d="M0 0 C2 1 2 1 2 1 Z " fill="#000000" transform="translate(103,285)"/>
<path d="M0 0 C2 1 2 1 2 1 Z " fill="#000000" transform="translate(976,284)"/>
<path d="M0 0 C2 1 2 1 2 1 Z " fill="#D9987F" transform="translate(228,283)"/>
<path d="M0 0 C2 1 2 1 2 1 Z " fill="#000000" transform="translate(111,283)"/>
<path d="M0 0 C2 1 2 1 2 1 Z " fill="#DE0619" transform="translate(533,97)"/>
<path d="" fill="#000000" transform="translate(0,0)"/>
<path d="" fill="#000000" transform="translate(0,0)"/>
<path d="" fill="#000000" transform="translate(0,0)"/>
<path d="" fill="#89241E" transform="translate(0,0)"/>
<path d="" fill="#000000" transform="translate(0,0)"/>
<path d="" fill="#000000" transform="translate(0,0)"/>
<path d="" fill="#000000" transform="translate(0,0)"/>
<path d="" fill="#000000" transform="translate(0,0)"/>
<path d="" fill="#000000" transform="translate(0,0)"/>
<path d="" fill="#000000" transform="translate(0,0)"/>
<path d="" fill="#000000" transform="translate(0,0)"/>
<path d="" fill="#000000" transform="translate(0,0)"/>
<path d="" fill="#000000" transform="translate(0,0)"/>
<path d="" fill="#DE0619" transform="translate(0,0)"/>
<path d="" fill="#000000" transform="translate(0,0)"/>
<path d="" fill="#000000" transform="translate(0,0)"/>
<path d="" fill="#D9987F" transform="translate(0,0)"/>
<path d="" fill="#000000" transform="translate(0,0)"/>
<path d="" fill="#000000" transform="translate(0,0)"/>
<path d="" fill="#000000" transform="translate(0,0)"/>
<path d="" fill="#000000" transform="translate(0,0)"/>
<path d="" fill="#DE0619" transform="translate(0,0)"/>
<path d="" fill="#000000" transform="translate(0,0)"/>
<path d="" fill="#000000" transform="translate(0,0)"/>
<path d="" fill="#000000" transform="translate(0,0)"/>
<path d="" fill="#000000" transform="translate(0,0)"/>
<path d="" fill="#000000" transform="translate(0,0)"/>
<path d="" fill="#000000" transform="translate(0,0)"/>
<path d="" fill="#000000" transform="translate(0,0)"/>
<path d="" fill="#89241E" transform="translate(0,0)"/>
<path d="" fill="#000000" transform="translate(0,0)"/>
<path d="" fill="#000000" transform="translate(0,0)"/>
<path d="" fill="#000000" transform="translate(0,0)"/>
<path d="" fill="#000000" transform="translate(0,0)"/>
<path d="" fill="#000000" transform="translate(0,0)"/>
<path d="" fill="#000000" transform="translate(0,0)"/>
<path d="" fill="#000000" transform="translate(0,0)"/>
<path d="" fill="#000000" transform="translate(0,0)"/>
<path d="" fill="#89241E" transform="translate(0,0)"/>
<path d="" fill="#000000" transform="translate(0,0)"/>
<path d="" fill="#000000" transform="translate(0,0)"/>
<path d="" fill="#000000" transform="translate(0,0)"/>
<path d="" fill="#000000" transform="translate(0,0)"/>
<path d="" fill="#000000" transform="translate(0,0)"/>
<path d="" fill="#000000" transform="translate(0,0)"/>
<path d="" fill="#000000" transform="translate(0,0)"/>
<path d="" fill="#000000" transform="translate(0,0)"/>
<path d="" fill="#DE0619" transform="translate(0,0)"/>
<path d="" fill="#89241E" transform="translate(0,0)"/>
<path d="" fill="#D9987F" transform="translate(0,0)"/>
<path d="" fill="#89241E" transform="translate(0,0)"/>
<path d="" fill="#000000" transform="translate(0,0)"/>
<path d="" fill="#DE0619" transform="translate(0,0)"/>
<path d="" fill="#000000" transform="translate(0,0)"/>
<path d="" fill="#000000" transform="translate(0,0)"/>
</svg>
